<svg width="24" height="24" viewBox="0 0 24 24" fill="none" xmlns="http://www.w3.org/2000/svg">
<path fill-rule="evenodd" clip-rule="evenodd" d="M7 3H16L21 8V17C21 19.2091 19.2091 21 17 21H7C4.79086 21 3 19.2091 3 17V7C3 4.79086 4.79086 3 7 3ZM18.7878 18.7878C19.2616 18.3141 19.5254 17.67 19.52 17L19.55 8.64L15.39 4.48H7C6.33002 4.47462 5.68592 4.73839 5.21215 5.21215C4.73839 5.68592 4.47462 6.33002 4.48 7V17C4.47462 17.67 4.73839 18.3141 5.21215 18.7878C5.68592 19.2616 6.33002 19.5254 7 19.52H17C17.67 19.5254 18.3141 19.2616 18.7878 18.7878Z" fill="#1B5046"/>
<path d="M13.5301 6.59009H6.1001C5.68588 6.59009 5.3501 6.92587 5.3501 7.34009C5.3501 7.7543 5.68588 8.09009 6.1001 8.09009H13.5301C13.9443 8.09009 14.2801 7.7543 14.2801 7.34009C14.2801 6.92587 13.9443 6.59009 13.5301 6.59009V6.59009Z" fill="#1B5046"/>
<path fill-rule="evenodd" clip-rule="evenodd" d="M6.25396 13.9502C6.5862 13.1533 7.36657 12.6359 8.22988 12.6399C9.40073 12.6399 10.3499 13.5891 10.3499 14.7599C10.3539 15.6232 9.83646 16.4036 9.03963 16.7358C8.2428 17.0681 7.32423 16.8865 6.71377 16.276C6.10331 15.6656 5.92171 14.747 6.25396 13.9502ZM7.64076 15.008C7.74143 15.2431 7.9742 15.394 8.22988 15.3899C8.57391 15.3845 8.84993 15.104 8.84988 14.7599C8.84985 14.5042 8.69525 14.2739 8.45861 14.177C8.22196 14.0801 7.95022 14.1358 7.77086 14.3181C7.59149 14.5004 7.54009 14.773 7.64076 15.008Z" fill="#1B5046"/>
</svg>


