<svg width="24" height="24" viewBox="0 0 24 24" fill="none" xmlns="http://www.w3.org/2000/svg">
<path fill-rule="evenodd" clip-rule="evenodd" d="M21.1736 15.0336L21.9336 20.3136C21.9884 20.7201 21.8648 21.1305 21.5946 21.4391C21.3243 21.7477 20.9338 21.9244 20.5236 21.9236H20.3136L15.0336 21.1636C14.3179 21.0649 13.6541 20.7348 13.1436 20.2236L3.40356 10.4736C1.5087 8.51167 1.5358 5.39314 3.46447 3.46447C5.39314 1.5358 8.51167 1.5087 10.4736 3.40356L20.2336 13.1436C20.7448 13.6541 21.0749 14.3179 21.1736 15.0336ZM14.2536 19.1636C14.5301 19.4292 14.8773 19.6097 15.2536 19.6836L20.4636 20.3736L19.7336 15.2036C19.6597 14.8273 19.4792 14.4801 19.2136 14.2036L9.46356 4.46356C8.80662 3.78913 7.90506 3.40874 6.96356 3.40874C6.02206 3.40874 5.1205 3.78913 4.46356 4.46356C3.80464 5.11864 3.43414 6.00942 3.43414 6.93856C3.43414 7.8677 3.80464 8.75848 4.46356 9.41356L14.2536 19.1636Z" fill="#361812"/>
<path d="M7.43366 6.37353C7.13815 6.09817 6.67765 6.1063 6.39203 6.39191C6.10642 6.67752 6.0983 7.13802 6.37366 7.43353L10.5837 11.6435C10.8765 11.936 11.3508 11.936 11.6437 11.6435C11.9361 11.3507 11.9361 10.8764 11.6437 10.5835L7.43366 6.37353Z" fill="#361812"/>
</svg>
